<?xml version="1.0" standalone="no"?>
<!DOCTYPE svg PUBLIC "-//W3C//DTD SVG 20010904//EN"
 "http://www.w3.org/TR/2001/REC-SVG-20010904/DTD/svg10.dtd">
<svg version="1.0" xmlns="http://www.w3.org/2000/svg"
 width="500.000000pt" height="500.000000pt" viewBox="0 0 500.000000 500.000000"
 preserveAspectRatio="xMidYMid meet">
<metadata>
Created by potrace 1.14, written by Peter Selinger 2001-2017
</metadata>
<g transform="translate(0.000000,500.000000) scale(0.100000,-0.100000)"
fill="#000000" stroke="none">
<path d="M1170 3926 c0 -35 102 -325 130 -369 15 -24 47 -59 71 -79 24 -19
213 -131 419 -248 206 -117 380 -217 385 -222 47 -42 -460 218 -708 364 -65
38 -121 67 -124 65 -8 -9 150 -286 182 -319 17 -17 48 -39 71 -49 22 -10 167
-39 322 -65 155 -26 280 -49 278 -51 -6 -6 -311 24 -476 46 -74 10 -136 17
-137 16 -4 -3 168 -148 210 -177 22 -16 52 -28 66 -28 14 0 95 23 180 50 85
27 156 48 157 47 2 -1 -27 -18 -63 -36 -76 -40 -165 -118 -183 -161 -21 -50
-5 -88 87 -207 48 -62 88 -112 89 -110 1 1 -2 22 -6 47 -29 149 15 317 110
421 l40 44 -40 -85 c-52 -111 -73 -197 -68 -276 3 -53 9 -70 37 -104 23 -29
30 -46 26 -61 -11 -34 -134 -152 -209 -200 l-70 -44 55 -5 c114 -11 183 33
245 157 16 32 30 60 32 62 1 3 7 0 13 -6 23 -23 -64 -177 -150 -265 l-45 -48
37 0 c93 0 156 76 187 225 l12 57 56 -54 c94 -90 99 -91 58 -9 -81 160 -132
360 -141 555 l-5 101 41 -125 c22 -69 65 -205 96 -302 31 -98 59 -178 63 -178
4 0 48 134 99 298 l92 297 -5 -125 c-4 -93 -12 -154 -34 -240 -28 -111 -88
-270 -119 -318 -8 -13 -13 -25 -11 -27 2 -2 40 30 86 71 79 73 82 75 82 47 0
-39 24 -125 50 -178 25 -52 88 -95 139 -95 l31 0 -55 68 c-57 68 -150 237
-139 253 10 17 22 9 33 -23 20 -59 93 -155 134 -178 30 -18 54 -22 109 -21 39
0 73 2 75 4 1 2 -30 24 -70 50 -70 44 -159 128 -204 192 -21 30 -21 31 -2 55
30 39 52 124 44 173 -10 66 -44 166 -81 241 -19 38 -33 70 -31 73 7 6 84 -100
109 -152 14 -27 30 -72 37 -99 13 -54 16 -183 5 -243 -7 -38 -6 -38 53 37 102
129 123 165 123 208 0 72 -76 149 -212 214 -37 18 -66 34 -64 35 1 2 79 -22
173 -52 180 -58 201 -62 236 -44 24 14 229 190 225 194 -2 2 -82 -7 -178 -20
-175 -24 -430 -48 -436 -42 -2 2 126 25 284 51 158 27 304 55 324 63 21 8 51
30 67 48 26 30 170 275 186 317 4 10 -56 -19 -147 -72 -206 -121 -678 -361
-678 -345 0 3 301 176 639 366 128 72 191 123 233 189 28 44 132 344 125 363
-1 5 -35 -31 -74 -80 -147 -184 -277 -285 -648 -503 -143 -84 -275 -167 -293
-184 -29 -27 -78 -115 -109 -195 -9 -23 -10 -23 -31 22 -15 32 -22 66 -22 107
0 33 -6 76 -14 94 -18 43 -69 81 -127 96 -41 10 -52 9 -94 -9 -26 -12 -55 -21
-65 -21 -20 0 -50 -30 -50 -51 0 -10 11 -15 35 -15 69 0 101 -68 70 -149 -17
-45 -65 -95 -91 -95 -8 0 -17 8 -21 18 -24 68 -76 163 -107 194 -20 21 -69 56
-109 79 -212 122 -422 249 -502 303 -103 70 -262 219 -337 315 -70 89 -68 88
-68 67z m1320 -692 c0 -2 -11 -4 -25 -4 -14 0 -25 4 -25 9 0 4 11 6 25 3 14
-2 25 -6 25 -8z"/>
<path d="M2360 2256 c0 -2 7 -20 15 -39 20 -49 19 -100 -5 -147 -31 -61 -127
-158 -215 -216 l-80 -54 84 0 c60 0 91 5 112 17 66 39 159 218 159 305 0 32
-8 57 -30 91 -26 41 -40 56 -40 43z"/>
<path d="M2601 2224 c-11 -15 -26 -44 -33 -66 -14 -48 5 -117 60 -222 43 -78
85 -120 139 -135 44 -12 153 -15 153 -3 0 4 -19 18 -43 31 -118 67 -243 198
-268 281 -9 31 -9 47 5 86 19 57 16 64 -13 28z"/>
<path d="M2531 2041 c-2 -61 21 -165 49 -227 32 -72 72 -104 138 -112 l46 -5
-58 64 c-52 57 -104 150 -164 289 -10 24 -11 24 -11 -9z"/>
<path d="M2421 1982 c-44 -100 -83 -164 -139 -229 l-44 -53 32 0 c43 0 106 37
130 75 36 59 85 285 62 285 -4 0 -22 -35 -41 -78z"/>
<path d="M2471 1870 c-27 -127 -27 -189 -1 -240 11 -22 24 -40 28 -40 12 0 41
65 48 108 6 38 -30 249 -45 265 -5 4 -18 -37 -30 -93z"/>
<path d="M1872 1372 c2 -4 21 -58 43 -120 l40 -112 40 0 41 0 38 108 c22 59
41 113 44 120 3 8 -7 12 -30 12 l-35 0 -28 -92 -28 -93 -24 80 c-13 44 -26 86
-28 93 -2 6 -21 12 -41 12 -19 0 -34 -4 -32 -8z"/>
<path d="M2190 1260 l0 -120 30 0 30 0 0 120 0 120 -30 0 -30 0 0 -120z"/>
<path d="M2330 1371 c0 -5 11 -40 25 -77 14 -38 33 -88 41 -112 16 -42 17 -43
56 -40 l40 3 43 118 43 118 -36 -3 -36 -3 -27 -90 -27 -90 -28 93 c-28 92 -28
92 -61 92 -18 0 -33 -4 -33 -9z"/>
<path d="M2640 1260 l0 -120 95 0 c95 0 95 0 95 25 0 24 -3 25 -60 25 -53 0
-60 2 -60 19 0 17 8 20 53 23 48 3 52 5 52 28 0 23 -4 25 -52 28 -45 3 -53 6
-53 23 0 16 7 19 55 19 52 0 55 1 55 25 0 25 -1 25 -90 25 l-90 0 0 -120z"/>
<path d="M2910 1260 l0 -120 30 0 c27 0 30 3 30 33 0 60 14 64 51 14 30 -40
39 -46 72 -47 20 0 37 3 37 6 0 3 -17 27 -38 53 -60 72 -60 68 -1 127 l53 54
-39 0 c-36 0 -45 -5 -87 -52 l-47 -53 -1 53 c0 51 -1 52 -30 52 l-30 0 0 -120z"/>
</g>
</svg>
